<svg width="188.531" height="188.531" xmlns="http://www.w3.org/2000/svg" xml:space="preserve" version="1.1">

 <g>
  <title>Layer 1</title>
  <path stroke="#306856" id="svg_2" d="m153.50749,154.14723c0,-0.39651 0,-0.79237 -0.39651,-1.18888l0,0c0,-0.39651 -0.39651,-0.79237 -0.79237,-0.79237c-0.39651,-0.39651 -34.87152,-42.40068 -38.04166,-100.6514c5.94376,-5.54791 9.51041,-13.07641 9.51041,-21.79445c0,-16.64372 -13.47292,-29.72013 -29.71947,-29.72013c-16.24655,0 -29.72013,13.47292 -29.72013,29.72013c0,8.71804 3.56665,16.2472 9.51041,21.79445c-3.56665,58.64723 -37.64515,100.25488 -38.04166,100.6514c-0.39651,0.39651 -0.39651,0.79237 -0.39651,0.79237l0,0c0,0.39651 -0.39651,0.79237 -0.39651,1.18888l0,0l0,31.30487c0,2.37777 1.58474,3.96251 3.96251,3.96251l110.55767,0c2.37777,0 3.96251,-1.58474 3.96251,-3.96251l0.00131,-31.30487l0,0zm-81.23405,-125.22013c0,-12.28404 9.90693,-21.79445 21.79445,-21.79445s21.79445,9.90693 21.79445,21.79445c0,7.13265 -3.17014,13.07641 -8.32153,17.43543c-7.92502,5.94376 -19.41669,6.34028 -26.94585,0c-5.15139,-3.96251 -8.32153,-10.30279 -8.32153,-17.43543zm9.1139,27.34236c0,0 0.39651,0 0,0c1.18888,0.39651 1.98125,0.79237 2.77362,1.18888l0.39651,0c3.17014,1.18888 6.34028,1.58474 9.51041,1.58474s6.73679,-0.39651 9.51041,-1.58474l0.39651,0c0.79237,-0.39651 1.58474,-0.79237 2.37777,-0.79237l0.39651,0c3.96251,45.57082 24.96459,80.44168 34.87152,94.31112l-95.1048,0c9.90693,-14.66181 30.90901,-49.13681 34.87152,-94.70763zm64.19514,125.22013l-103.02916,0l0,-23.37985l103.02916,0l0,23.37985z" opacity="undefined" stroke-linecap="undefined" stroke-linejoin="undefined" fill="#FFFF91"/>
  <g id="svg_3"/>
  <g id="svg_4"/>
  <g id="svg_5"/>
  <g id="svg_6"/>
  <g id="svg_7"/>
  <g id="svg_8"/>
  <g id="svg_9"/>
  <g id="svg_10"/>
  <g id="svg_11"/>
  <g id="svg_12"/>
  <g id="svg_13"/>
  <g id="svg_14"/>
  <g id="svg_15"/>
  <g id="svg_16"/>
  <g id="svg_17"/>
 </g>
</svg>